<?xml version="1.0" standalone="no"?><!DOCTYPE svg PUBLIC "-//W3C//DTD SVG 1.1//EN" "http://www.w3.org/Graphics/SVG/1.1/DTD/svg11.dtd"><svg t="1767506940862" class="icon" viewBox="0 0 1024 1024" version="1.1" xmlns="http://www.w3.org/2000/svg" p-id="5969" xmlns:xlink="http://www.w3.org/1999/xlink" width="1024" height="1024"><path d="M743.1168 911.313455a97.428945 97.428945 0 0 1-118.709527 0c-66.941673-51.590982-113.189236-111.448436-145.501091-172.581237 152.017455-146.785745 184.664436-334.754909 187.410618-456.927418 96.851782-2.094545 195.723636 13.591273 262.832873 47.755636a47.252945 47.252945 0 0 1 25.544145 36.808146c9.560436 82.245818 22.583855 364.497455-211.577018 544.954182z m-332.986182-151.942982a103.051636 103.051636 0 0 1-125.830982 0C37.664582 569.297455 51.330327 271.927855 61.402764 185.306764a50.594909 50.594909 0 0 1 27.303563-39.312291c66.466909-33.792 162.462255-50.725236 258.550691-50.725237 95.995345 0 192.074473 16.923927 258.504146 50.734546a50.660073 50.660073 0 0 1 27.303563 39.302982c10.109673 86.621091 23.738182 384.037236-222.943418 574.063709z m573.449309-396.502109a76.921018 76.921018 0 0 0-41.444072-59.857455c-71.735855-36.5568-174.592-53.387636-275.77251-51.153454a702.603636 702.603636 0 0 0-4.375272-70.004364 80.104727 80.104727 0 0 0-43.287273-62.398836c-142.019491-72.368873-400.830836-72.406109-542.980655 0-23.924364 12.157673-40.075636 35.504873-43.240727 62.398836C21.969455 272.402618 7.707927 583.465891 266.770618 783.071418a131.835345 131.835345 0 0 0 80.439855 27.368727c28.411345 0 56.785455-9.132218 80.4864-27.368727a648.471273 648.471273 0 0 0 29.007127-23.924363c33.857164 62.231273 81.733818 123.140655 150.174255 175.8208a126.0544 126.0544 0 0 0 153.814109 0c246.504727-189.933382 232.913455-485.869382 222.887563-572.099491z" fill="#000000" p-id="5970"></path><path d="M875.678255 452.235636c-34.592582-12.958255-70.209164 16.300218-79.36 65.210182-1.657018 9.104291 2.122473 18.404073 8.545745 20.759273 6.395345 2.448291 12.967564-2.950982 14.708364-12.055273 5.715782-30.859636 28.187927-49.310255 49.952581-41.108945 21.801891 8.154764 34.834618 39.908073 29.044364 70.721163-1.657018 9.048436 2.159709 18.404073 8.555055 20.759273l3.034763 0.642327c5.334109 0 10.212073-5.101382 11.589818-12.706909 9.188073-48.965818-11.515345-99.328-46.08-112.221091M834.429673 708.831418c-56.5248 47.215709-148.461382 47.215709-204.986182 0-5.808873-4.887273-15.313455-4.887273-21.159564 0-5.808873 4.840727-5.808873 12.753455 0 17.631418 34.136436 28.439273 78.866618 42.7008 123.652655 42.7008 44.730182 0 89.516218-14.261527 123.606109-42.7008 5.846109-4.887273 5.846109-12.781382 0-17.631418-5.808873-4.887273-15.266909-4.887273-21.113018 0" fill="#9E3DF6" p-id="5971"></path><path d="M682.309818 705.163636c24.613236 0 36.612655-11.012655 42.384291-20.284509 18.078255-29.0816-1.694255-77.135127-16.160582-100.947782-3.947055-6.4512-12.772073-8.676073-19.642182-4.989672-6.916655 3.649164-9.383564 11.850473-5.399272 18.301672 14.810764 24.3712 25.2928 59.624727 16.290909 74.091055-1.182255 1.936291-4.365964 6.972509-17.473164 6.972509-7.977891 0-14.382545 5.976436-14.382545 13.423709 0 7.447273 6.404655 13.433018 14.382545 13.433018" fill="#9E3DF6" p-id="5972"></path><path d="M460.241455 382.063709a46.703709 46.703709 0 0 0 16.700509 3.099927c11.310545 0 22.472145-4.1984 32.507345-12.455563 14.978327-12.306618 25.646545-32.265309 30.068364-55.919709 1.722182-9.057745-2.094545-18.310982-8.517818-20.759273-6.395345-2.3552-12.939636 2.997527-14.661819 12.055273-5.762327 30.859636-28.197236 49.319564-49.952581 41.1648-21.801891-8.201309-34.834618-39.963927-29.072291-70.777019 1.694255-9.001891-2.159709-18.357527-8.555055-20.759272-6.395345-2.345891-12.967564 3.053382-14.699054 12.055272-9.076364 48.965818 11.627055 99.337309 46.17309 112.295564M275.083636 339.502545c8.731927-21.261964 11.096436-45.968291 6.646691-69.72509-1.694255-9.057745-8.266473-14.410473-14.652509-12.064582-6.432582 2.401745-10.212073 11.757382-8.517818 20.759272 2.792727 14.959709 1.303273 30.561745-4.1984 43.920291-5.473745 13.405091-14.308073 22.853818-24.901818 26.856728-10.491345 3.956364-21.513309 1.852509-30.980655-5.901964-9.430109-7.801018-16.1792-20.256582-18.962618-35.262836-1.703564-9.048436-8.229236-14.401164-14.661818-12.055273-6.395345 2.401745-10.24 11.701527-8.508509 20.759273 4.412509 23.6544 15.108655 43.613091 30.086982 55.919709 10.072436 8.257164 21.159564 12.455564 32.4608 12.455563a46.545455 46.545455 0 0 0 16.709818-3.099927c16.774982-6.255709 30.794473-21.355055 39.489163-42.570473M347.880727 577.163636c-46.582691 0-90.484364 15.1552-123.568872 42.719419-5.846109 4.877964-5.846109 12.725527 0 17.6128l10.565818 3.667781 10.556509-3.667781c27.405964-22.863127 63.785891-35.449018 102.455854-35.449019 38.7072 0 75.096436 12.585891 102.455855 35.449019 5.892655 4.877964 15.36 4.877964 21.159564 0 5.892655-4.887273 5.892655-12.734836 0-17.6128C438.514036 592.328145 394.612364 577.163636 347.880727 577.163636M397.5168 513.163636c7.968582 0 14.410473-5.985745 14.410473-13.433018 0-7.400727-6.441891-13.460945-14.410473-13.460945-13.144436 0-16.290909-5.026909-17.473164-6.888728-9.029818-14.503564 1.489455-49.719855 16.328146-74.12829 3.900509-6.4512 1.480145-14.652509-5.389964-18.33891-6.953891-3.639855-15.732364-1.424291-19.623563 5.02691-14.550109 23.812655-34.257455 71.903418-16.197819 100.938472 5.771636 9.271855 17.808291 20.284509 42.356364 20.284509" fill="#000000" p-id="5973"></path></svg>