<?xml version="1.0" standalone="no"?><!DOCTYPE svg PUBLIC "-//W3C//DTD SVG 1.1//EN" "http://www.w3.org/Graphics/SVG/1.1/DTD/svg11.dtd"><svg t="1767506870534" class="icon" viewBox="0 0 1024 1024" version="1.1" xmlns="http://www.w3.org/2000/svg" p-id="2597" xmlns:xlink="http://www.w3.org/1999/xlink" width="1024" height="1024"><path d="M146.899316 855.784727A498.036364 498.036364 0 0 1 0.001862 501.201455a42.728727 42.728727 0 0 1 42.356363-42.356364 42.263273 42.263273 0 0 1 42.356364 42.356364 414.254545 414.254545 0 0 0 357.003636 408.017454c19.828364 2.792727 39.749818 4.282182 59.671273 4.282182a413.975273 413.975273 0 0 0 398.149818-295.098182A414.068364 414.068364 0 0 0 681.985862 121.949091a413.137455 413.137455 0 0 0-180.596364-41.332364c-130.978909 0-201.634909 35.84-277.224727 120.087273 33.233455 32.116364 52.130909 49.896727 57.064727 53.434182a44.218182 44.218182 0 0 1-25.786182 80.337454H83.504407a41.890909 41.890909 0 0 1-41.890909-41.890909V125.300364A42.728727 42.728727 0 0 1 84.156044 82.757818c7.447273 0 14.894545 1.954909 21.131636 5.678546 13.032727 7.633455 55.389091 55.575273 55.389091 53.061818 0-2.606545 63.301818-62.370909 122.600727-91.229091A503.249455 503.249455 0 0 1 501.017135 0c134.050909 0 259.723636 52.130909 354.583272 146.711273a497.850182 497.850182 0 0 1 146.711273 354.304c0 133.864727-52.130909 259.723636-146.711273 354.397091a497.477818 497.477818 0 0 1-354.397091 147.083636c-133.771636 0-259.723636-52.130909-354.304-146.711273zM579.027316 670.72a41.704727 41.704727 0 0 1-29.789091-12.846545l-89.925818-96.256v-283.927273a41.890909 41.890909 0 0 1 41.890909-41.890909h0.930909l1.117091 0.279272c19.456 3.816727 33.419636 20.48 33.698909 40.215273v242.036364l75.589819 80.709818c7.726545 7.726545 12.381091 18.618182 12.381091 29.509818a42.821818 42.821818 0 0 1-12.381091 29.602909l-0.186182 0.186182-0.186182 0.186182a48.872727 48.872727 0 0 1-32.302545 12.381091l-0.93091-0.186182z" fill="#707070" p-id="2598"></path></svg>