<?xml version="1.0" standalone="no"?><!DOCTYPE svg PUBLIC "-//W3C//DTD SVG 1.1//EN" "http://www.w3.org/Graphics/SVG/1.1/DTD/svg11.dtd"><svg t="1767506906401" class="icon" viewBox="0 0 1024 1024" version="1.1" xmlns="http://www.w3.org/2000/svg" p-id="4175" xmlns:xlink="http://www.w3.org/1999/xlink" width="1024" height="1024"><path d="M720.271 225.627c0-43.39 34.712-86.78 86.78-86.78 43.39 0 78.102 43.39 78.102 86.78s-34.712 86.78-78.102 86.78c-52.068 0-86.78-43.39-86.78-86.78z m-26.034 355.797c26.034 17.356 43.39 34.712 69.424 52.068 60.746 34.711 69.424 69.423 86.78 112.813 8.678 26.034 26.034 52.068 34.712 78.102 8.678 8.678 8.678 26.034 0 34.712-8.678 17.356-17.356 26.034-34.712 26.034s-34.712-17.356-34.712-26.034l-26.034-52.068c-8.678-17.356-17.356-34.712-26.034-60.746-8.678-17.356-17.356-26.034-34.712-34.712-34.712-34.712-69.424-52.068-112.813-69.424-8.678 0-17.356 0-17.356 8.678-69.424 69.424-182.238 95.458-269.017 43.39-17.356-8.678-26.034-26.034-26.034-43.39 8.678-17.355 26.034-34.711 43.39-43.39 17.356 0 26.034 8.679 34.712 17.357 26.033 17.355 60.745 17.355 95.457 8.678 43.39-17.356 52.068-43.39 69.424-78.102 34.712-52.068 60.746-104.136 86.78-164.882l8.677-17.355c-34.711-17.356-78.101-8.678-112.813 26.033l-26.034 26.034c-8.678 8.678-26.034 17.356-34.712 17.356-17.356 0-26.034-8.678-43.39-17.356-8.678-8.678-8.678-26.034 0-34.712 60.746-86.78 156.204-121.491 251.661-86.78l78.102 26.035 52.068 26.034c60.746 17.356 86.78 0 121.491-34.712 8.678-8.678 8.678-17.356 17.356-17.356 8.678-17.356 17.356-17.356 34.712-17.356s26.034 0 34.712 17.356c8.678 8.678 8.678 26.034 8.678 34.712-52.068 78.101-138.847 121.491-234.305 95.457-17.356 0-26.034 8.678-60.746 78.102-8.678 26.034-17.356 34.712-26.034 52.068 0 8.678-8.678 17.356-8.678 17.356zM321.085 798.373h321.084c8.678 0 8.678 0 8.678 8.678v8.678c0 8.678 0 8.678-8.678 8.678H321.085c-8.678 0-17.356 0-17.356-8.678v-8.678c0-8.678 8.678-8.678 17.356-8.678zM156.203 512H468.61c8.678 0 17.356 0 17.356 17.356 0 8.678-8.678 17.356-17.356 17.356H156.203c-17.356 0-17.356-8.678-17.356-17.356 0-17.356 0-17.356 17.356-17.356zM17.356 338.44h312.407c8.678 0 17.356 0 17.356 8.679v8.678c0 8.678-8.678 8.678-17.356 8.678H17.356C0 364.475 0 364.475 0 355.797v-8.678c0-8.678 0-8.678 17.356-8.678z m242.983-164.88h321.085c8.678 0 8.678 0 8.678 8.677v8.678c0 8.678 0 8.678-8.678 8.678H260.339c-8.678 0-17.356 0-17.356-8.678v-8.678c0-8.678 8.678-8.678 17.356-8.678z" p-id="4176" fill="#515151"></path></svg>