<?xml version="1.0" standalone="no"?><!DOCTYPE svg PUBLIC "-//W3C//DTD SVG 1.1//EN" "http://www.w3.org/Graphics/SVG/1.1/DTD/svg11.dtd"><svg t="1767506967853" class="icon" viewBox="0 0 1024 1024" version="1.1" xmlns="http://www.w3.org/2000/svg" p-id="7096" xmlns:xlink="http://www.w3.org/1999/xlink" width="1024" height="1024"><path d="M36.571429 182.857143A146.285714 146.285714 0 0 1 171.885714 36.937143L182.857143 36.571429H292.571429a36.571429 36.571429 0 0 1 6.582857 72.557714L292.571429 109.714286H182.857143a73.142857 73.142857 0 0 0-72.630857 64.585143L109.714286 182.857143v658.285714a73.142857 73.142857 0 0 0 64.585143 72.630857l8.557714 0.512h658.285714a73.142857 73.142857 0 0 0 72.630857-64.585143l0.512-8.557714V731.428571a36.571429 36.571429 0 0 1 72.557715-6.582857l0.585142 6.582857v109.714286a146.285714 146.285714 0 0 1-135.314285 145.92l-10.971429 0.365714h-658.285714a146.285714 146.285714 0 0 1-145.92-135.314285L36.571429 841.142857v-658.285714z" fill="#515151" p-id="7097"></path><path d="M658.285714 36.571429a329.142857 329.142857 0 1 1 0 658.285714 36.571429 36.571429 0 0 1 0-73.142857 256 256 0 1 0-214.528-116.224 36.571429 36.571429 0 0 1-61.220571 40.009143A329.142857 329.142857 0 0 1 658.285714 36.571429z" fill="#515151" p-id="7098"></path><path d="M454.948571 613.010286a36.571429 36.571429 0 0 0 40.667429-23.259429l1.682286-6.363428 27.940571-158.500572a36.571429 36.571429 0 0 0-70.290286-19.017143l-1.755428 6.363429-21.577143 122.441143-122.441143-21.577143a36.571429 36.571429 0 0 0-40.667428 23.259428l-1.682286 6.363429a36.571429 36.571429 0 0 0 23.259428 40.667429l6.363429 1.682285 158.500571 27.940572z" fill="#515151" p-id="7099"></path></svg>